# xmcd
#
# Track frame offsets: 
#        150
#        22307
#        49692
#        72790
#        102527
#        126607
#        151997
#        170317
#        192167
#        216810
#        247887
#        264237
#        286485
#
# Disc length: 4286 seconds
#
# Revision: 2
# Processed by: cddbd v1.5.2PL0 Copyright (c) Steve Scherf et al.
# Submitted via: ExactAudioCopy v1.3
#
DISCID=be10bc0d
DTITLE=Beau Jocque and The Zydeco Hi-Rollers - The Best of Beau Jocque &
DTITLE=The Zydeco Hi-Rollers
DYEAR=2001
DGENRE=Zydeco
TTITLE0=Give Him Cornbread
TTITLE1=Boogie Chillun
TTITLE2=Gonna Take You Downtown
TTITLE3=Going to the Country
TTITLE4=Tighten Up
TTITLE5=Damballah
TTITLE6=Slide and Dip It
TTITLE7=Cisco Kid
TTITLE8=Yesterday
TTITLE9=Knockin' On Heavens Door
TTITLE10=Richards Club
TTITLE11=Just One Kiss
TTITLE12=Do It All Night
EXTD=\nYEAR: 2001  ID3G:   0
EXTT0=
EXTT1=
EXTT2=
EXTT3=
EXTT4=
EXTT5=
EXTT6=
EXTT7=
EXTT8=
EXTT9=
EXTT10=
EXTT11=
EXTT12=
PLAYORDER=
